<?xml version="1.0" standalone="no"?>
<!DOCTYPE svg PUBLIC "-//W3C//DTD SVG 20010904//EN"
 "http://www.w3.org/TR/2001/REC-SVG-20010904/DTD/svg10.dtd">
<svg version="1.0" xmlns="http://www.w3.org/2000/svg"
 width="474.000000pt" height="474.000000pt" viewBox="0 0 474.000000 474.000000"
 preserveAspectRatio="xMidYMid meet">
<metadata>
Created by potrace 1.15, written by Peter Selinger 2001-2017
</metadata>
<g transform="translate(0.000000,474.000000) scale(0.100000,-0.100000)"
fill="#000000" stroke="none">
<path d="M1070 4730 c0 -5 -19 -10 -42 -10 -116 0 -328 -53 -443 -109 -207
-103 -369 -268 -465 -472 -48 -104 -100 -321 -100 -421 0 -21 -4 -38 -10 -38
-7 0 -10 -443 -10 -1310 0 -720 4 -1310 8 -1310 4 0 13 -46 20 -102 17 -139
55 -286 98 -370 119 -238 326 -422 565 -503 81 -28 270 -65 331 -65 21 0 38
-4 38 -10 0 -7 443 -10 1310 -10 721 0 1310 4 1310 8 0 4 46 13 103 20 232 27
427 107 572 232 108 94 211 227 266 343 38 82 85 268 94 375 4 45 12 82 16 82
5 0 9 573 9 1310 0 867 -3 1310 -10 1310 -5 0 -10 17 -10 38 0 56 -36 246 -61
322 -50 153 -162 319 -290 430 -79 68 -230 157 -312 184 -78 26 -223 56 -303
63 -41 3 -74 10 -74 14 0 5 -587 9 -1305 9 -863 0 -1305 -3 -1305 -10z m1922
-757 c14 -16 28 -38 31 -50 3 -13 -8 -87 -24 -164 -16 -78 -29 -145 -29 -149
0 -4 30 -20 68 -35 167 -70 331 -170 423 -260 29 -28 41 -77 28 -111 -4 -12
-58 -74 -119 -138 -108 -112 -114 -116 -154 -116 -36 0 -52 8 -112 55 -83 67
-240 146 -345 175 -155 42 -347 43 -464 3 -27 -9 -69 -32 -93 -51 -57 -46 -82
-96 -82 -170 0 -49 5 -66 29 -98 15 -21 39 -49 52 -61 25 -23 171 -99 217
-113 15 -4 65 -22 112 -40 47 -17 105 -38 130 -47 88 -30 260 -111 337 -159
113 -69 231 -190 277 -284 46 -94 70 -216 62 -317 -28 -359 -220 -592 -595
-720 -59 -20 -233 -53 -281 -53 -47 0 -52 -8 -69 -110 -17 -98 -40 -181 -57
-197 -26 -26 -61 -30 -258 -25 -221 5 -245 11 -266 62 -11 26 -9 48 15 162 15
72 29 137 31 143 3 7 -29 24 -85 44 -175 63 -323 149 -439 256 -74 69 -90 103
-71 152 6 15 63 81 128 145 116 116 119 118 163 118 39 0 52 -6 99 -47 178
-156 329 -221 567 -244 89 -9 124 -8 201 5 205 36 311 131 311 280 0 87 -44
147 -150 204 -49 26 -330 142 -345 142 -13 0 -194 74 -249 102 -102 51 -198
119 -266 188 -129 131 -180 261 -180 459 0 141 17 217 72 330 32 67 57 102
122 166 44 45 108 97 142 117 124 73 309 130 461 144 41 4 76 10 78 15 3 4 16
62 30 128 41 200 26 191 305 191 l216 0 26 -27z"/>
</g>
</svg>
