<?xml version="1.0" standalone="no"?>
<!DOCTYPE svg PUBLIC "-//W3C//DTD SVG 20010904//EN"
 "http://www.w3.org/TR/2001/REC-SVG-20010904/DTD/svg10.dtd">
<svg version="1.0" xmlns="http://www.w3.org/2000/svg"
 width="455.000000pt" height="408.000000pt" viewBox="0 0 455.000000 408.000000"
 preserveAspectRatio="xMidYMid meet">
<metadata>
Created by potrace 1.15, written by Peter Selinger 2001-2017
</metadata>
<g transform="translate(0.000000,408.000000) scale(0.100000,-0.100000)"
fill="#000000" stroke="none">
<path d="M0 2040 l0 -2040 2275 0 2275 0 0 2040 0 2040 -2275 0 -2275 0 0
-2040z m540 1980 c0 -18 -7 -20 -75 -20 l-75 0 0 -80 c0 -73 -2 -80 -20 -80
-18 0 -20 7 -20 82 0 110 8 118 112 118 71 0 78 -2 78 -20z m3632 3 c15 -13
18 -31 18 -100 0 -76 -2 -83 -20 -83 -18 0 -20 7 -20 80 l0 80 -75 0 c-68 0
-75 2 -75 20 0 18 7 20 77 20 57 0 81 -4 95 -17z m-1609 -28 c732 -105 1321
-599 1569 -1317 l43 -123 0 -460 0 -460 -37 -115 c-100 -306 -256 -562 -482
-785 -177 -175 -356 -299 -565 -391 -268 -117 -490 -164 -782 -164 -314 0
-583 62 -854 197 -378 188 -673 481 -863 858 -141 279 -201 537 -202 860 0
244 28 418 102 634 135 393 395 728 753 968 239 161 538 271 820 302 55 6 114
13 130 15 51 7 261 -4 368 -19z m-2173 -3745 l0 -80 75 0 c68 0 75 -2 75 -20
0 -18 -7 -20 -79 -20 -105 0 -111 6 -111 116 0 77 2 84 20 84 18 0 20 -7 20
-80z m3800 -4 c0 -110 -6 -116 -111 -116 -72 0 -79 2 -79 20 0 18 7 20 75 20
l75 0 0 80 c0 73 2 80 20 80 18 0 20 -7 20 -84z"/>
</g>
</svg>
