<?xml version="1.0" standalone="no"?>
<!DOCTYPE svg PUBLIC "-//W3C//DTD SVG 20010904//EN"
 "http://www.w3.org/TR/2001/REC-SVG-20010904/DTD/svg10.dtd">
<svg version="1.0" xmlns="http://www.w3.org/2000/svg"
 width="200.000000pt" height="241.000000pt" viewBox="0 0 200.000000 241.000000"
 preserveAspectRatio="xMidYMid meet">
<metadata>
Created by potrace 1.15, written by Peter Selinger 2001-2017
</metadata>
<g transform="translate(0.000000,241.000000) scale(0.100000,-0.100000)"
fill="#000000" stroke="none">
<path d="M1048 2044 l-57 -35 83 -82 c65 -65 92 -101 128 -172 26 -49 54 -116
63 -147 9 -32 18 -58 19 -58 16 0 -29 236 -60 319 -20 51 -109 212 -117 211
-1 0 -28 -16 -59 -36z"/>
<path d="M615 1843 c-71 -125 -131 -230 -133 -234 -2 -4 10 -10 25 -14 48 -12
246 -91 324 -130 180 -90 335 -222 376 -321 10 -24 21 -44 25 -44 12 0 21 174
15 290 -8 149 -27 222 -84 332 -52 102 -119 180 -208 243 -59 42 -179 105
-200 105 -5 0 -68 -102 -140 -227z m344 54 c51 -34 81 -96 81 -168 0 -173
-214 -259 -331 -132 -61 65 -76 150 -40 221 58 112 186 148 290 79z"/>
<path d="M750 1735 c0 -96 3 -115 15 -115 11 0 15 12 15 45 0 45 0 45 34 45
30 0 38 -6 63 -45 16 -27 35 -45 46 -45 17 0 17 4 -7 44 l-26 45 25 25 c32 32
32 60 0 91 -21 22 -33 25 -95 25 l-70 0 0 -115z m138 73 c18 -18 14 -56 -7
-68 -11 -5 -38 -10 -60 -10 l-41 0 0 45 0 45 48 0 c26 0 53 -5 60 -12z"/>
<path d="M1202 2028 c11 -16 61 -40 169 -81 85 -31 161 -66 170 -77 13 -15 15
-28 9 -52 -4 -18 -87 -253 -184 -523 -181 -505 -194 -533 -240 -519 -55 16
-433 158 -443 166 -24 19 -13 65 61 269 61 169 71 205 59 212 -8 5 -16 7 -17
5 -1 -1 -38 -103 -81 -225 -72 -206 -77 -225 -65 -253 7 -17 21 -35 31 -40 43
-24 453 -170 474 -170 55 0 65 23 259 565 103 286 186 530 186 542 0 41 -41
70 -155 111 -60 22 -141 52 -179 66 l-68 26 14 -22z"/>
<path d="M1255 1924 c61 -147 79 -258 73 -454 l-4 -151 84 233 c46 128 86 247
89 264 l5 31 -108 41 c-60 22 -118 44 -128 48 -16 6 -18 4 -11 -12z"/>
<path d="M851 1362 c-56 -142 -81 -227 -69 -237 21 -19 386 -148 397 -140 36
21 -11 154 -81 231 -51 55 -144 127 -204 157 -31 16 -32 16 -43 -11z"/>
<path d="M729 1029 c-14 -26 -8 -31 63 -57 l56 -21 6 24 c4 14 7 28 7 32 0 7
-89 43 -108 43 -7 0 -17 -9 -24 -21z"/>
<path d="M906 984 c-33 -32 -9 -86 39 -86 30 0 55 24 55 53 0 25 -27 49 -55
49 -13 0 -31 -7 -39 -16z"/>
<path d="M1032 915 c-11 -23 -9 -26 26 -41 60 -25 102 -30 104 -10 0 9 1 21 2
28 1 10 -81 45 -110 47 -6 1 -16 -10 -22 -24z"/>
<path d="M1705 554 c-224 -47 -358 -59 -695 -59 -322 0 -428 7 -645 46 -60 10
-127 22 -147 25 l-38 7 0 -222 0 -221 820 0 820 0 0 225 c0 124 -1 224 -2 224
-2 -1 -52 -12 -113 -25z m-1293 -184 c12 -16 24 -30 28 -30 3 0 14 14 23 30
10 17 26 30 36 30 22 0 31 -35 31 -116 0 -54 0 -54 -31 -54 -31 0 -32 0 -26
43 5 36 4 39 -7 25 -16 -22 -34 -23 -57 -2 -16 15 -17 13 -12 -25 5 -39 4 -41
-21 -41 l-26 0 0 85 c0 78 2 85 20 85 11 0 29 -13 42 -30z m278 5 c0 -20 -5
-25 -25 -25 -24 0 -25 -3 -25 -60 0 -57 -1 -60 -25 -60 -24 0 -25 3 -25 60 0
57 -1 60 -25 60 -20 0 -25 5 -25 25 0 24 2 25 75 25 73 0 75 -1 75 -25z m92
-17 l37 -43 1 43 c0 39 2 43 23 40 21 -3 22 -8 22 -83 0 -71 -2 -80 -19 -83
-14 -3 -32 10 -58 39 l-37 44 -1 -42 c0 -39 -2 -43 -25 -43 -24 0 -25 3 -25
54 0 125 21 144 82 74z m239 11 l26 -32 22 32 c12 17 31 31 42 31 17 0 19 -8
19 -85 0 -84 0 -85 -25 -85 -23 0 -25 4 -25 43 -1 33 -3 38 -11 25 -5 -10 -17
-18 -26 -18 -9 0 -22 8 -29 18 -12 15 -13 12 -14 -25 0 -39 -2 -43 -25 -43
-25 0 -25 1 -25 78 0 43 3 82 7 85 14 15 39 6 64 -24z m356 1 c22 -37 27 -37
50 0 12 21 24 30 38 28 18 -3 20 -12 23 -85 3 -83 3 -83 -23 -83 -23 0 -25 4
-25 41 l0 41 -18 -22 -19 -23 -21 21 -22 22 0 -40 c0 -36 -2 -40 -25 -40 -25
0 -25 1 -25 85 0 83 0 85 24 85 17 0 31 -10 43 -30z m-117 -20 c49 -26 45 -95
-6 -119 -35 -16 -48 -14 -78 10 -66 52 9 149 84 109z m355 -2 c45 -20 47 -78
3 -111 -55 -41 -135 16 -107 76 19 41 60 55 104 35z"/>
<path d="M1204 306 c-9 -22 2 -46 21 -46 12 0 15 8 13 27 -3 30 -25 42 -34 19z"/>
<path d="M1562 293 c4 -36 33 -39 33 -3 0 16 -6 26 -18 28 -15 3 -18 -2 -15
-25z"/>
</g>
</svg>
