<?xml version="1.0" standalone="no"?>
<!DOCTYPE svg PUBLIC "-//W3C//DTD SVG 20010904//EN"
 "http://www.w3.org/TR/2001/REC-SVG-20010904/DTD/svg10.dtd">
<svg version="1.0" xmlns="http://www.w3.org/2000/svg"
 width="474.000000pt" height="474.000000pt" viewBox="0 0 474.000000 474.000000"
 preserveAspectRatio="xMidYMid meet">
<metadata>
Created by potrace 1.15, written by Peter Selinger 2001-2017
</metadata>
<g transform="translate(0.000000,474.000000) scale(0.100000,-0.100000)"
fill="#000000" stroke="none">
<path d="M1903 3835 c-11 -8 -23 -25 -26 -37 -3 -13 -63 -384 -132 -826 -123
-776 -127 -804 -109 -823 17 -19 29 -20 221 -17 112 2 203 1 203 -3 0 -3 -4
-9 -9 -15 -5 -5 -12 -34 -15 -64 -3 -30 -8 -65 -12 -78 -14 -47 4 -52 190 -50
l171 2 -160 6 -160 6 167 2 c91 1 168 5 171 10 2 4 2 1 1 -5 -5 -21 13 -15 28
10 22 33 45 194 30 209 -17 17 -15 33 2 19 11 -10 16 3 26 71 7 46 13 97 14
115 1 18 12 46 24 63 22 30 23 30 120 30 54 0 124 7 157 16 33 8 66 16 73 16
6 1 12 8 12 17 0 12 2 13 9 3 6 -10 20 -7 61 14 64 32 62 31 120 84 25 23 38
38 30 34 -8 -4 -1 6 15 22 76 72 142 292 131 430 -3 39 -14 91 -25 116 -22 52
-76 117 -105 128 -19 6 -21 16 -21 111 0 93 -3 111 -29 166 -31 69 -98 138
-164 172 -23 12 -79 30 -124 41 -75 18 -119 20 -473 20 -328 0 -394 -2 -412
-15z m1211 -537 c-5 -7 -14 -29 -20 -48 -7 -19 -12 -27 -13 -17 -1 23 27 92
35 84 3 -3 2 -12 -2 -19z m19 -25 c-4 -11 -3 -14 5 -9 14 8 15 5 6 -18 -3 -9
-16 -15 -28 -15 -16 1 -17 2 -3 6 9 2 17 9 17 14 0 6 -5 7 -11 3 -8 -4 -8 0 0
15 14 25 23 28 14 4z m-56 -88 c-10 -7 -17 -18 -17 -25 0 -7 -3 -10 -7 -7 -10
10 18 57 30 50 6 -4 3 -11 -6 -18z m-44 -97 c-3 -16 -9 -28 -14 -28 -4 0 -3
14 3 31 12 36 18 35 11 -3z m216 -43 c-1 -29 -1 -29 -9 -5 -4 14 -8 34 -9 45
-1 16 1 17 9 5 5 -8 9 -28 9 -45z m-265 -63 c-20 -17 -24 -50 -9 -85 8 -19 11
-18 -87 -17 -20 0 -43 -6 -51 -15 -9 -8 -24 -15 -34 -15 -12 -1 -8 -5 12 -14
l30 -13 -36 1 c-21 1 -36 6 -36 14 0 6 3 12 6 12 4 0 31 16 60 35 30 20 60 34
67 31 7 -3 15 2 18 10 3 9 1 12 -4 9 -6 -3 -10 -2 -10 3 0 17 13 21 32 11 17
-9 18 -8 9 9 -12 23 4 43 27 34 12 -4 14 -1 8 14 -6 16 -5 17 6 6 11 -11 9
-16 -8 -30z m56 14 c0 -2 -7 -7 -16 -10 -8 -3 -12 -2 -9 4 6 10 25 14 25 6z
m0 -46 c0 -5 -5 -10 -11 -10 -5 0 -7 5 -4 10 3 6 8 10 11 10 2 0 4 -4 4 -10z
m175 -56 l-15 -29 0 28 c0 16 4 26 10 22 6 -3 10 -1 10 6 0 7 2 10 5 7 3 -3
-1 -18 -10 -34z m-194 -54 c9 0 19 -9 22 -20 3 -13 0 -20 -9 -20 -8 0 -14 5
-14 10 0 6 -3 9 -7 9 -23 -4 -33 3 -33 23 0 17 3 19 12 10 7 -7 20 -12 29 -12z
m-276 -12 c-11 -7 -26 -18 -33 -25 -7 -7 -21 -13 -30 -14 -9 0 -37 -2 -62 -5
-41 -4 -39 -2 20 14 36 10 74 24 85 30 11 6 25 11 30 11 6 0 1 -5 -10 -11z
m412 -37 c-1 -14 -5 -15 -24 -7 -25 12 -30 32 -10 39 17 6 36 -11 34 -32z
m-464 -23 c4 -10 8 -9 16 2 8 12 11 6 11 -25 -1 -46 -28 -85 -59 -85 -18 0
-21 6 -21 40 0 22 -4 40 -10 40 -19 0 -10 21 13 30 31 12 45 12 50 -2z m-468
-8 c3 -6 -4 -10 -17 -10 l-22 0 24 -17 c14 -9 27 -20 30 -23 3 -4 13 -9 22
-13 28 -10 10 -37 -24 -37 -23 0 -29 4 -24 15 5 14 -16 21 -46 16 -5 0 -8 5
-8 12 0 8 -4 7 -10 -3 -8 -13 -10 -12 -10 3 0 20 46 67 66 67 7 0 16 -4 19
-10z m255 0 c0 -6 -47 -10 -120 -10 -73 0 -120 4 -120 10 0 6 47 10 120 10 73
0 120 -4 120 -10z m617 -37 c-11 -10 -26 8 -20 23 5 15 7 14 15 -1 6 -9 7 -19
5 -22z m-490 21 c-3 -3 -12 -4 -19 -1 -8 3 -5 6 6 6 11 1 17 -2 13 -5z m-447
-89 c0 -12 -19 -12 -23 0 -4 9 -1 12 9 8 7 -3 14 -7 14 -8z m927 -11 c0 -7 -4
-11 -8 -8 -4 2 -10 0 -14 -6 -4 -6 -11 -8 -16 -4 -6 4 -6 10 0 18 14 17 38 16
38 0z m-952 -44 c-4 -12 -9 -19 -12 -17 -3 3 -2 15 2 27 4 12 9 19 12 17 3 -3
2 -15 -2 -27z m914 6 c10 -12 8 -13 -8 -9 -12 3 -18 9 -15 14 7 12 10 11 23
-5z m-99 -41 c0 -1 -8 -5 -18 -7 -11 -3 -19 0 -19 7 0 7 8 10 19 7 10 -2 18
-6 18 -7z m-815 -5 c3 -5 1 -10 -4 -10 -6 0 -11 5 -11 10 0 6 2 10 4 10 3 0 8
-4 11 -10z m3 -27 c-9 -2 -19 -16 -21 -31 -4 -24 -4 -24 -6 6 -1 27 2 32 22
31 15 -1 17 -3 5 -6z m364 -50 c-5 -10 -8 -27 -6 -39 2 -13 -2 -21 -11 -21 -8
0 -15 2 -15 4 0 10 30 73 35 73 3 0 2 -8 -3 -17z m75 11 c-3 -3 -12 -4 -19 -1
-8 3 -5 6 6 6 11 1 17 -2 13 -5z m178 -4 c-3 -5 -12 -7 -20 -3 -21 7 -19 13 6
13 11 0 18 -4 14 -10z m85 6 c0 -9 -39 -13 -51 -5 -10 6 -4 9 19 9 17 0 32 -2
32 -4z m-300 -10 c0 -2 -7 -7 -16 -10 -8 -3 -12 -2 -9 4 6 10 25 14 25 6z
m-432 -56 c-1 -22 -6 -40 -11 -40 -5 0 -7 10 -3 23 3 12 6 30 6 40 0 9 2 17 5
17 3 0 4 -18 3 -40z m379 -62 c-3 -7 -5 -2 -5 12 0 14 2 19 5 13 2 -7 2 -19 0
-25z m-387 -8 c-6 -11 -13 -20 -16 -20 -2 0 0 9 6 20 6 11 13 20 16 20 2 0 0
-9 -6 -20z m-20 -182 c0 -9 -4 -20 -10 -23 -6 -4 -10 9 -10 32 0 28 3 34 10
23 5 -8 10 -23 10 -32z m360 -23 c0 -14 -3 -25 -7 -25 -5 0 -8 11 -8 25 0 14
3 25 8 25 4 0 7 -11 7 -25z m5 -57 c-4 -13 -8 -33 -9 -45 0 -12 -3 -19 -5 -17
-2 2 -10 -1 -17 -7 -11 -9 -12 -5 -2 22 6 19 15 39 20 46 6 8 2 13 -14 16 -20
4 -19 4 6 6 25 1 28 -2 21 -21z m-383 -100 c-7 -7 -12 -8 -12 -2 0 6 3 14 7
17 3 4 9 5 12 2 2 -3 -1 -11 -7 -17z m8 -28 c0 -5 -2 -10 -4 -10 -3 0 -8 5
-11 10 -3 6 -1 10 4 10 6 0 11 -4 11 -10z"/>
<path d="M970 1658 c-5 -12 -21 -99 -35 -193 -15 -93 -35 -225 -46 -293 -11
-67 -17 -127 -14 -132 7 -12 125 -13 142 -2 7 4 18 44 24 87 19 130 15 125
111 125 132 1 206 39 249 127 34 70 39 180 10 227 -38 60 -74 71 -263 74 -168
4 -168 4 -178 -20z m271 -129 c17 -17 20 -29 16 -63 -8 -61 -42 -86 -118 -86
-53 0 -60 2 -56 18 3 9 8 35 11 57 16 101 12 95 72 95 42 0 59 -5 75 -21z"/>
<path d="M2658 1674 c-10 -3 -18 -7 -18 -9 0 -2 -9 -58 -20 -125 -12 -66 -18
-126 -14 -132 4 -5 2 -13 -3 -17 -5 -3 -19 -71 -32 -151 -12 -80 -24 -157 -27
-172 l-6 -28 76 0 c83 0 79 -4 91 80 13 95 19 121 28 127 6 3 35 5 64 4 183
-7 295 91 297 259 0 83 -14 107 -37 61 -9 -17 -11 -29 -6 -26 13 9 11 -4 -10
-63 -11 -29 -20 -55 -21 -57 -4 -21 -14 -34 -21 -29 -9 5 -14 -22 -11 -58 1
-9 -6 -22 -15 -30 -12 -9 -15 -9 -9 0 10 17 -4 15 -26 -5 -16 -15 -18 -15 -18
0 0 9 8 21 18 26 9 6 12 11 6 11 -18 0 -22 46 -7 71 8 14 12 16 9 6 -3 -10 -2
-15 4 -12 5 3 7 21 4 41 -2 19 1 45 7 57 7 12 8 19 4 15 -8 -8 -42 31 -38 44
2 4 -4 5 -12 2 -7 -3 -21 -1 -31 4 -13 7 -10 10 16 16 18 3 38 1 45 -4 9 -8
14 -4 19 15 4 14 11 25 16 25 6 0 10 4 10 9 0 5 -6 8 -12 7 -7 0 -13 3 -13 9
0 9 24 8 34 -1 2 -2 -4 -24 -13 -48 -13 -33 -21 -43 -33 -39 -11 4 -14 2 -11
-8 3 -8 12 -13 21 -13 10 1 24 2 33 3 8 0 12 6 9 12 -4 6 2 13 14 16 12 3 21
11 21 18 0 7 7 16 16 19 21 8 10 23 -39 48 -36 18 -62 22 -192 24 -82 2 -158
1 -167 -2z m240 -33 c-7 -9 -14 -18 -16 -21 -3 -3 -2 4 2 15 5 19 2 21 -31 19
l-38 -3 35 8 c48 10 64 4 48 -18z m-163 -31 c-4 -6 7 -10 24 -10 17 0 31 -4
31 -10 0 -5 -5 -10 -11 -10 -5 0 -7 -4 -4 -10 3 -5 -1 -10 -10 -10 -10 0 -14
5 -9 13 4 6 -1 4 -11 -5 -17 -16 -19 -16 -37 4 -18 22 -18 22 4 35 28 15 31
16 23 3z m-59 -37 c-10 -10 -19 5 -10 18 6 11 8 11 12 0 2 -7 1 -15 -2 -18z
m236 -40 c22 -20 24 -73 3 -112 -8 -16 -12 -30 -10 -33 2 -2 -4 -4 -13 -5 -9
0 -43 -5 -75 -10 -56 -10 -58 -9 -63 14 -6 21 12 147 24 167 8 13 114 -3 134
-21z m-197 -3 c3 -5 0 -21 -8 -35 -12 -24 -15 -25 -26 -11 -8 9 -19 16 -27 16
-20 0 -28 21 -13 31 19 12 66 11 74 -1z m15 -81 c0 -5 -4 -8 -9 -4 -5 3 -17
-5 -25 -17 l-16 -22 0 27 c0 22 4 27 25 27 14 0 25 -5 25 -11z m330 -20 c0
-18 -4 -28 -10 -24 -6 4 -8 11 -5 16 4 5 2 9 -4 9 -6 0 -8 7 -5 15 10 26 24
17 24 -16z m-333 -61 c-3 -7 -5 -2 -5 12 0 14 2 19 5 13 2 -7 2 -19 0 -25z
m14 -32 c1 -6 1 -17 0 -24 -1 -7 3 -11 10 -10 25 6 15 -29 -11 -39 -24 -9 -30
-8 -35 6 -6 14 -8 14 -20 -2 -13 -17 -14 -17 -20 4 -5 15 -2 25 8 30 8 5 18
20 21 33 4 18 11 23 26 19 11 -3 21 -10 21 -17z m167 13 c25 -10 26 -11 9 -21
-19 -10 -68 -7 -101 7 -14 6 -17 5 -12 -3 4 -7 2 -12 -3 -12 -6 0 -11 5 -11
10 0 6 -7 10 -16 10 -9 0 -12 -5 -8 -12 4 -7 3 -8 -4 -4 -20 12 -13 25 16 28
57 8 105 6 130 -3z m-287 -80 c-5 -13 -10 -19 -10 -12 -1 15 10 45 15 40 3 -2
0 -15 -5 -28z m334 21 c3 -5 1 -10 -4 -10 -6 0 -11 5 -11 10 0 6 2 10 4 10 3
0 8 -4 11 -10z m-358 -62 c-3 -7 -5 -2 -5 12 0 14 2 19 5 13 2 -7 2 -19 0 -25z
m-14 -48 c-3 -12 -8 -19 -11 -16 -5 6 5 36 12 36 2 0 2 -9 -1 -20z m34 -46
c-3 -3 -12 -4 -19 -1 -8 3 -5 6 6 6 11 1 17 -2 13 -5z m61 -28 c-1 -24 -7 -36
-20 -39 -10 -3 -20 -2 -23 3 -2 4 -17 5 -32 2 -22 -3 -26 -2 -16 8 6 7 9 18 7
24 -5 13 31 33 63 35 19 1 22 -4 21 -33z"/>
<path d="M2734 1284 c-18 -14 -18 -15 4 -4 12 6 22 13 22 15 0 8 -5 6 -26 -11z"/>
<path d="M3730 1641 c-6 -22 -12 -64 -13 -94 -1 -30 -5 -53 -10 -50 -4 2 -7
-8 -6 -24 0 -15 -13 -111 -30 -213 -17 -102 -31 -188 -31 -192 0 -5 27 -8 60
-8 42 0 60 4 60 13 0 7 -10 13 -22 14 -11 1 -24 7 -28 14 -6 8 -9 8 -13 -2 -4
-9 -8 -6 -13 10 -7 23 -8 24 -16 5 -6 -16 -7 -15 -5 6 1 18 7 24 20 22 17 -3
21 7 18 41 -1 9 2 17 6 17 15 0 33 -23 33 -42 0 -10 5 -18 10 -18 9 0 14 17
13 47 -1 7 3 10 8 7 5 -3 9 3 9 12 0 10 3 15 6 11 3 -3 1 -22 -6 -42 -6 -20
-13 -55 -13 -78 l-2 -42 -65 -6 -65 -6 67 -1 c75 -2 71 -6 82 83 2 22 14 92
25 155 42 228 53 327 39 349 -10 16 -10 23 -1 32 9 9 11 7 6 -10 -3 -13 -1
-21 7 -21 6 0 10 10 8 23 -3 20 -9 22 -65 25 l-62 3 -11 -40z m30 14 c0 -8 -4
-15 -10 -15 -5 0 -7 7 -4 15 4 8 8 15 10 15 2 0 4 -7 4 -15z m-23 -227 c-3 -7
-5 -2 -5 12 0 14 2 19 5 13 2 -7 2 -19 0 -25z m93 22 c0 -5 -2 -10 -4 -10 -3
0 -8 5 -11 10 -3 6 -1 10 4 10 6 0 11 -4 11 -10z m-54 -25 c17 -16 14 -18 -10
-9 -9 3 -16 10 -16 15 0 13 9 11 26 -6z m13 -72 c-1 -37 -1 -37 -8 -8 -7 28
-5 45 5 45 2 0 3 -17 3 -37z m18 15 c-3 -8 -6 -5 -6 6 -1 11 2 17 5 13 3 -3 4
-12 1 -19z"/>
<path d="M1544 1446 c-77 -36 -131 -117 -141 -212 -18 -169 140 -266 293 -180
l43 24 3 -22 c3 -18 10 -21 65 -24 78 -4 73 -12 108 208 14 91 28 177 31 193
l6 27 -75 0 c-69 0 -75 -2 -82 -22 -4 -14 -8 -18 -12 -10 -19 46 -156 57 -239
18z m181 -100 c26 -11 36 -23 44 -52 31 -112 -110 -204 -190 -125 -51 52 -28
139 45 172 50 23 57 23 101 5z"/>
<path d="M3255 1461 c-41 -14 -74 -34 -69 -42 3 -5 -2 -6 -10 -3 -10 4 -20 -5
-31 -25 -8 -17 -19 -31 -24 -31 -14 0 -21 -29 -9 -36 7 -5 8 -2 3 6 -5 8 -4
11 2 7 15 -10 3 -62 -17 -75 -17 -10 -18 -9 -13 6 4 9 11 20 17 24 8 5 8 10 0
18 -8 8 -15 -1 -24 -34 -24 -86 5 -177 71 -220 34 -23 47 -26 106 -22 82 5 86
6 48 17 -25 7 -24 8 12 4 47 -6 77 14 66 43 -6 16 -6 16 10 0 9 -9 17 -26 17
-37 0 -19 6 -21 64 -21 36 0 67 4 70 8 5 8 66 378 66 400 0 8 -24 12 -71 12
-70 0 -71 0 -67 -25 3 -13 2 -24 -1 -23 -3 0 -8 0 -11 -2 -19 -7 -63 -8 -51
-1 8 6 9 11 3 15 -12 7 -26 -11 -27 -33 0 -8 -7 -15 -16 -16 -11 -2 -16 5 -15
24 1 15 6 25 13 24 7 -2 10 4 7 12 -5 13 -1 13 35 0 49 -17 45 0 -5 21 -34 14
-114 17 -149 5z m48 -41 c-4 -4 -21 -10 -38 -13 -16 -4 -24 -4 -17 -1 6 3 9
11 5 17 -4 7 0 8 13 3 10 -4 15 -4 11 0 -4 4 1 13 11 20 14 11 18 10 20 -3 2
-8 0 -19 -5 -23z m217 20 c0 -5 13 -7 30 -4 29 6 29 6 28 -39 0 -34 -4 -44
-14 -40 -10 4 -14 -3 -14 -21 0 -18 -5 -26 -17 -25 -11 0 -13 3 -5 6 20 8 15
77 -8 103 -18 20 -20 21 -20 5 0 -10 -3 -16 -6 -12 -9 9 3 37 16 37 5 0 10 -4
10 -10z m-7 -45 c-3 -9 -8 -14 -10 -11 -3 3 -2 9 2 15 9 16 15 13 8 -4z m-288
-4 c3 -5 1 -12 -5 -16 -5 -3 -10 -1 -10 5 0 6 -3 9 -7 7 -5 -3 -17 -1 -28 4
-16 6 -14 8 12 8 17 1 34 -3 38 -8z m265 -1 c0 -5 -7 -10 -15 -10 -8 0 -15 5
-15 10 0 6 7 10 15 10 8 0 15 -4 15 -10z m-190 -20 c-8 -5 -22 -9 -30 -9 -10
0 -8 3 5 9 27 12 43 12 25 0z m104 -3 c-3 -8 2 -20 11 -27 9 -7 15 -8 15 -2 0
6 -5 13 -10 15 -6 3 -5 4 2 3 7 -2 13 -11 14 -22 0 -10 4 -27 8 -37 13 -27 -2
-80 -32 -116 -25 -30 -35 -35 -86 -39 -49 -4 -60 -2 -81 18 -47 45 -26 152 37
186 13 8 42 13 65 14 23 0 45 5 48 10 9 15 15 12 9 -3z m-175 -24 c2 -1 -5
-10 -15 -20 -17 -17 -18 -17 -11 1 4 10 2 26 -5 35 -12 14 -11 15 7 1 11 -8
22 -15 24 -17z m21 17 c0 -5 -2 -10 -4 -10 -3 0 -8 5 -11 10 -3 6 -1 10 4 10
6 0 11 -4 11 -10z m319 -87 c-1 -37 -1 -37 -8 -8 -7 28 -5 45 5 45 2 0 3 -17
3 -37z m-396 -23 c-3 -10 -12 -21 -21 -25 -14 -5 -15 -4 -4 6 6 7 12 24 12 39
0 18 3 21 9 11 5 -7 6 -21 4 -31z m358 -8 c-7 -2 -8 -8 -3 -15 6 -7 6 -20 1
-32 -9 -18 -9 -18 -5 3 2 12 0 22 -5 22 -13 0 -11 19 4 34 8 10 13 10 16 3 2
-6 -1 -13 -8 -15z m-65 -50 c-15 -15 -16 -15 -16 0 0 9 3 24 6 33 7 16 8 16
17 0 6 -12 5 -22 -7 -33z m-283 -45 c-9 -16 -26 12 -18 30 7 17 8 17 15 -2 4
-11 5 -24 3 -28z m62 1 c5 4 5 2 1 -5 -9 -16 29 -36 54 -28 12 4 20 2 20 -4 0
-6 -14 -11 -30 -11 -17 0 -42 -7 -55 -16 -27 -17 -47 -11 -38 11 3 8 0 15 -6
15 -6 0 -11 -9 -11 -20 0 -24 -22 -26 -40 -5 -9 10 -9 15 -1 15 6 0 11 -4 11
-10 0 -5 5 -10 11 -10 5 0 8 4 4 9 -3 5 3 16 13 23 11 7 23 24 27 37 7 22 9
23 20 8 6 -9 16 -13 20 -9z m196 -13 c11 6 11 5 2 -5 -12 -14 -33 -6 -33 13 0
8 3 7 9 -2 5 -8 14 -10 22 -6z m-297 -1 c24 -9 19 -21 -9 -26 -14 -3 -25 -1
-25 3 0 5 8 9 18 9 14 0 15 2 2 10 -17 11 -10 13 14 4z m223 -36 c-3 -8 -6 -5
-6 6 -1 11 2 17 5 13 3 -3 4 -12 1 -19z m151 -45 c-10 -2 -26 -2 -35 0 -10 3
-2 5 17 5 19 0 27 -2 18 -5z"/>
<path d="M2007 1454 c-3 -3 23 -89 58 -191 l64 -186 -60 -88 c-34 -48 -58 -92
-55 -98 4 -6 36 -11 74 -11 l67 1 31 42 c16 23 64 92 106 152 41 61 114 166
162 235 47 69 86 130 86 137 0 9 -21 13 -73 13 l-74 0 -78 -115 c-43 -63 -81
-115 -84 -115 -4 0 -13 21 -19 48 -7 26 -22 77 -34 115 l-20 67 -72 0 c-40 0
-75 -3 -79 -6z"/>
<path d="M2965 1400 c-18 -35 -11 -39 16 -7 21 25 24 37 9 37 -5 0 -16 -13
-25 -30z"/>
</g>
</svg>
