<?xml version="1.0" standalone="no"?>
<!DOCTYPE svg PUBLIC "-//W3C//DTD SVG 20010904//EN"
 "http://www.w3.org/TR/2001/REC-SVG-20010904/DTD/svg10.dtd">
<svg version="1.0" xmlns="http://www.w3.org/2000/svg"
 width="474.000000pt" height="266.000000pt" viewBox="0 0 474.000000 266.000000"
 preserveAspectRatio="xMidYMid meet">
<metadata>
Created by potrace 1.15, written by Peter Selinger 2001-2017
</metadata>
<g transform="translate(0.000000,266.000000) scale(0.100000,-0.100000)"
fill="#000000" stroke="none">
<path d="M2268 2517 c-43 -11 -78 -24 -78 -27 0 -4 26 -12 58 -19 87 -20 292
-88 425 -142 l119 -48 95 26 95 27 -42 18 c-158 67 -532 189 -575 187 -11 0
-55 -10 -97 -22z"/>
<path d="M1845 2372 c-77 -31 -86 -37 -65 -43 231 -70 460 -153 548 -198 l35
-18 106 46 105 45 -61 28 c-148 67 -502 179 -555 177 -13 -1 -63 -17 -113 -37z"/>
<path d="M1335 2141 c-181 -93 -228 -120 -423 -238 l-123 -75 78 -35 c43 -19
86 -37 95 -40 11 -3 58 21 125 65 167 108 333 207 482 285 l135 71 -89 28
c-50 15 -94 28 -100 28 -5 0 -86 -40 -180 -89z"/>
<path d="M3120 2200 c-300 -89 -614 -235 -962 -446 -170 -103 -528 -356 -528
-372 0 -10 212 -147 225 -146 6 1 68 44 139 97 473 356 963 624 1406 769 l45
15 -112 56 c-62 32 -114 57 -115 56 -2 0 -46 -13 -98 -29z"/>
<path d="M1810 2036 c-230 -125 -609 -367 -618 -393 -2 -7 5 -16 15 -20 17 -6
81 -43 149 -84 l32 -19 78 58 c189 140 413 285 583 375 l82 44 -104 47 c-58
25 -108 46 -113 45 -5 0 -52 -24 -104 -53z"/>
<path d="M3660 1963 c-372 -133 -853 -403 -1295 -727 -90 -66 -233 -174 -255
-194 -3 -2 6 -12 20 -21 13 -9 72 -53 130 -98 59 -46 110 -78 116 -75 7 4 29
23 50 42 127 115 584 434 849 592 230 137 509 283 618 323 26 10 47 21 47 24
0 12 -226 141 -246 140 -10 0 -26 -3 -34 -6z"/>
<path d="M1698 389 c-65 -33 -92 -125 -58 -194 49 -99 215 -101 266 -4 24 46
15 131 -17 165 -50 55 -126 68 -191 33z m129 -50 c34 -29 32 -111 -3 -150 -18
-20 -64 -25 -93 -9 -27 14 -44 64 -37 104 12 65 85 94 133 55z"/>
<path d="M4093 391 c-69 -32 -100 -113 -69 -184 30 -70 99 -100 190 -83 32 6
36 10 36 38 0 25 -3 29 -17 22 -69 -30 -137 -3 -149 60 -13 71 55 131 120 106
37 -14 36 -14 36 19 0 21 -6 30 -22 35 -40 10 -82 6 -125 -13z"/>
<path d="M130 260 l0 -140 69 0 c83 0 114 10 136 44 21 31 9 76 -23 91 -25 11
-29 25 -7 25 16 0 35 30 35 55 0 9 -11 27 -25 40 -22 22 -32 25 -105 25 l-80
0 0 -140z m128 91 c8 -4 12 -19 10 -32 -2 -19 -10 -25 -38 -27 -34 -3 -36 -1
-34 25 1 15 2 31 3 36 1 10 43 9 59 -2z m17 -146 c0 -28 -3 -30 -41 -33 l-42
-3 0 36 0 36 42 -3 c38 -3 41 -5 41 -33z"/>
<path d="M525 383 c-20 -52 -95 -255 -95 -258 0 -3 14 -5 31 -5 24 0 32 6 40
30 10 28 14 30 64 30 50 0 54 -2 64 -30 8 -24 16 -30 40 -30 17 0 31 3 31 8 0
4 -22 65 -49 137 l-49 130 -35 3 c-26 2 -36 -1 -42 -15z m69 -130 c7 -21 4
-23 -28 -23 -20 0 -36 1 -36 3 0 2 8 26 17 53 l17 49 12 -30 c6 -17 15 -40 18
-52z"/>
<path d="M810 261 l0 -141 30 0 30 0 0 98 0 97 63 -97 c58 -91 64 -98 95 -98
l32 0 0 140 0 140 -30 0 -29 0 -3 -92 -3 -93 -56 90 c-52 84 -58 90 -92 93
l-37 3 0 -140z"/>
<path d="M1202 263 l3 -138 32 -3 32 -3 3 73 3 73 47 -72 c44 -68 50 -73 83
-73 19 0 35 3 35 8 0 4 -21 34 -45 66 -48 63 -53 80 -32 105 7 9 25 35 40 59
l27 42 -35 0 c-33 0 -39 -5 -78 -67 l-42 -68 -3 68 -3 67 -35 0 -35 0 3 -137z"/>
<path d="M2020 260 l0 -140 35 0 35 0 0 59 0 60 43 -2 c39 -2 42 0 42 23 0 23
-4 25 -43 25 -41 0 -42 1 -42 33 l0 32 55 0 c30 0 55 4 55 9 0 5 3 16 6 25 5
14 -6 16 -90 16 l-96 0 0 -140z"/>
<path d="M2466 391 c-8 -13 -96 -253 -96 -263 0 -4 13 -8 29 -8 23 0 31 6 40
30 9 28 13 30 63 30 50 0 54 -2 65 -30 9 -25 17 -30 43 -30 22 0 31 4 27 12
-2 7 -26 70 -52 141 -49 127 -49 127 -81 127 -18 0 -35 -4 -38 -9z m58 -108
c9 -26 16 -48 16 -50 0 -2 -16 -3 -36 -3 -33 0 -36 2 -30 23 4 12 9 34 12 50
9 39 20 34 38 -20z"/>
<path d="M2750 260 l0 -140 30 0 30 0 1 98 0 97 46 -95 46 -95 46 95 46 95 3
-97 3 -98 29 0 30 0 0 140 0 140 -40 0 c-40 0 -40 0 -78 -77 l-39 -76 -36 76
-37 77 -40 0 -40 0 0 -140z"/>
<path d="M3200 260 l0 -140 95 0 c95 0 95 0 95 25 0 24 -2 25 -65 25 l-65 0 0
35 0 35 50 0 c47 0 50 2 50 25 0 23 -3 25 -50 25 -49 0 -50 1 -50 30 0 30 0
30 59 30 55 0 59 2 63 25 l5 25 -93 0 -94 0 0 -140z"/>
<path d="M3510 261 l0 -141 30 0 c28 0 29 1 32 55 2 30 8 56 13 57 6 1 24 -23
40 -53 26 -46 35 -54 63 -57 18 -2 32 0 32 4 0 3 -14 32 -32 62 -21 37 -28 57
-20 60 26 8 42 35 42 71 0 64 -16 76 -114 80 l-86 3 0 -141z m135 53 c0 -26
-4 -29 -37 -32 -37 -3 -38 -3 -38 32 0 37 17 48 55 36 14 -5 20 -16 20 -36z"/>
<path d="M3840 260 l0 -140 30 0 30 0 0 140 0 140 -30 0 -30 0 0 -140z"/>
<path d="M4388 278 c-26 -68 -49 -131 -53 -141 -6 -14 -1 -17 28 -17 31 0 36
4 42 30 6 29 8 30 65 30 56 0 58 -1 64 -30 5 -25 10 -30 36 -30 16 0 30 5 30
11 0 7 -21 70 -47 140 l-48 129 -35 0 -36 0 -46 -122z m101 8 c15 -59 16 -56
-23 -56 l-34 0 16 50 c9 28 19 50 23 50 4 0 12 -20 18 -44z"/>
</g>
</svg>
