<?xml version="1.0" standalone="no"?>
<!DOCTYPE svg PUBLIC "-//W3C//DTD SVG 20010904//EN"
 "http://www.w3.org/TR/2001/REC-SVG-20010904/DTD/svg10.dtd">
<svg version="1.0" xmlns="http://www.w3.org/2000/svg"
 width="856.000000pt" height="630.000000pt" viewBox="0 0 856.000000 630.000000"
 preserveAspectRatio="xMidYMid meet">
<metadata>
Created by potrace 1.15, written by Peter Selinger 2001-2017
</metadata>
<g transform="translate(0.000000,630.000000) scale(0.100000,-0.100000)"
fill="#000000" stroke="none">
<path d="M0 3980 l0 -2320 2384 0 c2165 0 2384 -1 2390 -16 3 -9 6 -27 6 -40
0 -13 5 -24 10 -24 15 0 12 67 -2 73 -7 3 -1 6 13 6 23 1 26 -2 22 -24 -6 -30
17 -55 51 -55 22 0 26 5 27 33 1 17 1 35 0 39 0 5 257 8 573 8 627 0 586 4
586 -56 0 -13 5 -24 10 -24 15 0 12 67 -2 73 -7 3 -1 6 13 6 23 1 26 -2 22
-24 -6 -30 17 -55 51 -55 22 0 26 5 27 33 1 17 1 35 0 40 0 4 516 7 1149 7
l1150 0 0 40 0 40 40 0 40 0 0 2280 0 2280 -4280 0 -4280 0 0 -2320z m2124
344 c3 -9 6 -83 6 -165 l0 -149 234 0 c129 0 241 -3 250 -6 14 -5 16 -27 16
-138 l0 -131 -98 -126 c-53 -69 -142 -184 -198 -255 -55 -71 -196 -253 -314
-404 -117 -151 -224 -286 -236 -301 -13 -14 -24 -28 -24 -32 0 -4 164 -7 364
-7 l365 0 41 -79 c24 -43 65 -104 92 -136 36 -43 48 -65 46 -84 l-3 -26 -267
-3 -268 -2 -2 -163 -3 -162 -165 0 -165 0 -3 163 -2 162 -249 0 c-137 0 -256
3 -265 6 -14 5 -16 27 -16 143 l0 136 434 555 434 555 -407 3 c-367 2 -407 4
-418 19 -16 21 -18 265 -3 294 10 18 24 19 250 19 l240 0 0 158 c0 87 3 162 7
165 3 4 77 7 164 7 134 0 158 -2 163 -16z m2335 -167 c7 -10 11 -241 13 -776
l3 -763 25 -20 c20 -16 33 -19 71 -14 60 8 72 -4 88 -85 7 -34 24 -87 37 -118
14 -30 24 -64 22 -76 -5 -34 -54 -49 -183 -53 -104 -4 -129 -1 -184 18 -82 27
-140 67 -174 119 -57 86 -57 83 -57 956 0 610 3 804 12 813 18 18 312 17 327
-1z m710 0 c7 -10 11 -238 13 -776 l3 -763 25 -20 c19 -15 33 -18 61 -14 53 8
67 0 96 -58 14 -28 43 -77 64 -108 56 -82 53 -103 -18 -136 -49 -22 -75 -27
-169 -30 -84 -3 -126 0 -170 13 -75 21 -152 71 -186 121 -58 84 -58 84 -58
959 0 610 3 804 12 813 18 18 312 17 327 -1z m1716 -279 c30 -13 31 -20 6 -42
-15 -14 -23 -15 -45 -5 -33 15 -76 -2 -76 -30 0 -13 15 -25 55 -41 64 -26 85
-50 85 -98 0 -52 -45 -92 -105 -92 -45 0 -105 22 -105 39 0 4 8 15 19 25 17
16 20 16 49 -1 25 -14 34 -15 56 -5 43 19 34 50 -21 74 -70 30 -93 54 -93 99
0 72 95 114 175 77z m201 -103 l38 -106 40 106 41 105 42 0 43 0 0 -155 0
-155 -31 0 -31 0 6 120 c3 66 3 120 2 120 -2 0 -23 -54 -46 -120 -37 -105 -45
-120 -65 -120 -20 0 -28 15 -66 123 -49 136 -53 133 -47 -30 l3 -93 -27 0 -28
0 0 155 0 155 44 0 43 0 39 -105z m-3644 -100 c228 -47 403 -211 478 -450 31
-97 41 -323 16 -348 -16 -16 -59 -17 -492 -17 -536 0 -489 8 -458 -82 35 -103
129 -171 262 -189 141 -19 282 17 369 95 74 66 75 66 149 -13 36 -38 82 -81
104 -96 55 -38 53 -62 -12 -121 -110 -98 -233 -160 -377 -190 -116 -23 -317
-16 -416 16 -161 51 -279 138 -363 269 -85 130 -117 265 -109 451 6 145 22
212 79 330 80 166 258 306 438 344 87 19 242 19 332 1z m2840 0 c228 -47 409
-218 480 -453 13 -45 22 -109 25 -198 5 -113 3 -132 -11 -147 -16 -16 -59 -17
-492 -17 -536 0 -489 8 -458 -82 34 -102 126 -170 259 -189 140 -21 279 16
380 101 32 27 63 50 68 50 5 0 37 -31 73 -69 35 -38 82 -81 104 -96 55 -38 53
-62 -12 -121 -110 -98 -233 -160 -378 -190 -115 -23 -315 -15 -415 16 -230 72
-388 236 -452 470 -25 91 -25 338 0 430 70 255 260 443 501 495 83 18 239 18
328 0z m-4483 -1749 c-2 -2 -13 8 -23 22 l-19 27 24 -22 c12 -12 21 -24 18
-27z m351 4 c0 -18 -5 -25 -14 -22 -5 2 -12 -2 -16 -9 -6 -9 -12 -8 -26 1 -16
10 -17 11 -1 6 11 -3 22 2 29 14 14 21 28 26 28 10z m-266 -58 c2 -4 -7 -12
-20 -19 -19 -9 -24 -8 -24 2 0 19 34 32 44 17z m316 -23 c0 -6 -4 -7 -10 -4
-5 3 -10 11 -10 16 0 6 5 7 10 4 6 -3 10 -11 10 -16z m-47 -14 c-7 -21 -13
-19 -13 6 0 11 4 18 10 14 5 -3 7 -12 3 -20z"/>
<path d="M3210 3377 c-71 -17 -106 -36 -151 -84 -38 -39 -66 -86 -80 -135 l-8
-28 314 0 314 0 -8 28 c-50 171 -204 259 -381 219z"/>
<path d="M6050 3377 c-69 -16 -95 -30 -143 -76 -41 -38 -60 -69 -82 -132 l-14
-39 314 0 314 0 -21 61 c-48 144 -205 223 -368 186z"/>
</g>
</svg>
